<svg fill="none" viewBox="0 0 66 30" xmlns="http://www.w3.org/2000/svg"><path clip-rule="evenodd" d="m65.9954 24.408h-6.732c-.597 3.167-3.345 5.572-6.635 5.572s-6.04-2.405-6.64-5.572h-24.539c-.597 3.167-3.345 5.572-6.635 5.572s-6.03603-2.405-6.63003-5.572h-7.199995v-7.208h1.394995s1.23001-5 1.63701-6.496c.126-.46.527-.785.993-.844l6.56002-.83s7.464-8.24 7.614-8.39c.426-.433 1.142-.64 1.94-.64h16.73c1 0 1.796.183 2.378.774l8.782 8.645s10.594 2.67 13.175 3.4c.71.2 1.04.76 1.23 1.284.54 1.484 1.07 3.653 1.3 4.457h1.154v5.84l.115.003zm-13.366 2.462c2.037 0 3.69-1.684 3.69-3.753 0-.74-.217-1.433-.587-2.014-.657-1.042-1.797-1.734-3.104-1.734-1.31 0-2.45.69-3.11 1.73-.37.58-.59 1.27-.59 2.01 0 2.07 1.652 3.752 3.69 3.752zm-34.706-5.767c-.657-1.042-1.796-1.734-3.104-1.734-1.307 0-2.448.69-3.103 1.73-.37.58-.588 1.27-.588 2.01 0 2.07 1.65 3.752 3.69 3.752 2.03 0 3.69-1.685 3.69-3.754 0-.74-.22-1.433-.59-2.014zm10.012-18.655h-5.813c-.29 0-.553.163-.684.426-.64 1.29-2.53 5.783-2.82 6.503-.27.68.222 1.42.943 1.42h8.37l-.005-8.35zm17.057 6.75-6.633-6.518c-.147-.15-.505-.234-.76-.234h-7.792l.015 8.348h14.517c.51.022.982-.39.932-.906 0-.222-.057-.454-.28-.693z" fill="#000" fill-rule="evenodd"/></svg>