<svg viewBox="0 0 167.66 36.19" xmlns="http://www.w3.org/2000/svg">
    <g transform="translate(-.17 -.41)">
        <path d="m42.5 27.1v-13.1h-.1c-.47.43-2.19.46-2.92.46h-1.27v.11c1.46.9 1.26 2.22 1.26 3.88v5.55c0 2.77-2.72 4.72-4.92 4.72-2.89 0-4.09-2.05-4.09-5.37v-9.35h-.1c-.46.43-2.2.46-2.93.46h-1.25v.11c1.46.9 1.26 2.22 1.26 3.88v5.55c0 5.06 2.2 7.47 6.12 7.47 2.33 0 4.72-.83 5.92-2.8v2.33h4.28v-.09c-1.46-.83-1.26-2.16-1.26-3.81z"/>
        <path d="m49.15 20.08a4.22 4.22 0 0 1 4.29-3.68 3.91 3.91 0 0 1 4.29 3.68zm12.08 2.09c.13-4.63-3-8.12-7.49-8.12-5 0-8.32 3.6-8.32 8.59s3.89 8.86 9.58 8.86a11.3 11.3 0 0 0 4.59-.89l1.67-3.37h-.1a8.33 8.33 0 0 1 -5.46 1.92c-3.76 0-6.59-2.57-6.66-7h12.19z"/>
        <path d="m63.87 6.37c.8 0 2.42-.05 2.92-.54h.1v22.71a10.18 10.18 0 0 0 2.74.43c3.64 0 5.72-2.54 5.72-6.09s-1.62-6.16-5-6.16a5.37 5.37 0 0 0 -2.78.79l1.79-3.06a6.57 6.57 0 0 1 2.34-.4c3.77 0 7 3.27 7 8.18 0 5.62-3.8 9.26-9.82 9.26a38.36 38.36 0 0 1 -6-.65v-.11c1.1-.5 1-1.69 1-2.88v-16.5c0-1.66.2-4-1.23-4.88v-.1h1.24z"/>
        <path d="m84.62 20.08a4.22 4.22 0 0 1 4.29-3.68 3.92 3.92 0 0 1 4.29 3.68zm12.08 2.09c.13-4.63-3-8.12-7.49-8.12-5 0-8.32 3.6-8.32 8.59s3.89 8.86 9.55 8.86a11.3 11.3 0 0 0 4.56-.89l1.66-3.37h-.1a8.33 8.33 0 0 1 -5.46 1.92c-3.76 0-6.59-2.57-6.66-7h12.26z"/>
        <path d="m111.59 18.17h-.1a5.26 5.26 0 0 0 -4.06-1.77 5.52 5.52 0 0 0 -5.55 5.87 6.76 6.76 0 0 0 6.92 6.88 8.18 8.18 0 0 0 4.86-1.77h.1l-1.76 3.41a11.66 11.66 0 0 1 -4.39.71c-5.12 0-9.13-3.61-9.13-8.29 0-6.2 4.47-9.16 9.49-9.16a15.25 15.25 0 0 1 3.6.43v3.69z"/>
        <path d="m57.07 11.08v-3.6a15.33 15.33 0 0 0 -5.56 4.58v1.4a15.13 15.13 0 0 1 5.56-2.38z" fill-rule="evenodd"/>
        <path d="m12.48 29c-5.02 0-8.48-5.65-8.48-10.46v-.54c0-4.67 3-9 8.32-9 5.55 0 8.41 5.25 8.45 10.22v.52c0 5.26-3.29 9.26-8.29 9.26zm17.22 5.51c-3.71.61-7.28-.56-11.07-4.9 3.67-1.81 5.94-6.39 5.94-10.61v-.56a11.81 11.81 0 0 0 -12-12.08 12.22 12.22 0 0 0 -12.4 12.33s0 .46 0 .49c0 7.14 5.29 12.43 11.78 12.43a11.55 11.55 0 0 0 2.73-.36c4.25 4 8 5.68 11.31 5.28a6.13 6.13 0 0 0 4.18-2.08z"/>
    </g>
    <path d="m121.45 0h20.17v12.36h-20.17z" fill="#16619d"/>
    <path d="m131.7 1.05a13.73 13.73 0 0 1 -1 1.36 2.42 2.42 0 0 0 -.23 2.51 11 11 0 0 1 .71 1.91 6.13 6.13 0 0 1 .09 1.85h-.56a3.51 3.51 0 0 0 -1.46-3.22 1.7 1.7 0 0 0 -2.45 2.05 1.36 1.36 0 0 0 .79 1 1.28 1.28 0 0 1 .41-1.24 1.15 1.15 0 0 1 1.61.32 2.63 2.63 0 0 1 .39 1.09h-1.05v.78h2.05a1 1 0 0 1 -1.21 1s.14.86 1.21.41a1.58 1.58 0 0 0 .68 1.36 1.59 1.59 0 0 0 .68-1.36c1.07.45 1.21-.41 1.21-.41a1 1 0 0 1 -1.21-1h2.11v-.78h-1.05a2.6 2.6 0 0 1 .36-1.09 1.15 1.15 0 0 1 1.61-.32 1.29 1.29 0 0 1 .41 1.27 1.36 1.36 0 0 0 .79-1 1.7 1.7 0 0 0 -2.45-2.05 3.51 3.51 0 0 0 -1.45 3.22h-.56a6.06 6.06 0 0 1 .09-1.85 10.73 10.73 0 0 1 .78-1.94 2.43 2.43 0 0 0 -.23-2.51 14.86 14.86 0 0 1 -1.07-1.36z"
          fill="#fff" fill-rule="evenodd" transform="translate(-.17 -.41)"/>
    <path d="m147.49 0h20.17v12.36h-20.17z" fill="#16619d"/>
    <path d="m157.75 1.05a14.4 14.4 0 0 1 -1 1.36 2.43 2.43 0 0 0 -.22 2.51 11.07 11.07 0 0 1 .71 1.91 6.36 6.36 0 0 1 .09 1.85h-.56a3.5 3.5 0 0 0 -1.46-3.22 1.7 1.7 0 0 0 -2.44 2.05 1.36 1.36 0 0 0 .79 1 1.28 1.28 0 0 1 .34-1.24 1.14 1.14 0 0 1 1.61.32 2.57 2.57 0 0 1 .39 1.09h-1v.78h2.11a1 1 0 0 1 -1.21 1s.14.86 1.21.41a1.58 1.58 0 0 0 .69 1.36 1.59 1.59 0 0 0 .67-1.36c1.07.45 1.22-.41 1.22-.41a1 1 0 0 1 -1.22-1h2.12v-.78h-1.06a2.68 2.68 0 0 1 .36-1.09 1.15 1.15 0 0 1 1.62-.32 1.3 1.3 0 0 1 .41 1.27 1.35 1.35 0 0 0 .78-1 1.7 1.7 0 0 0 -2.44-2.05 3.52 3.52 0 0 0 -1.45 3.22h-.61a5.89 5.89 0 0 1 .09-1.85 10.54 10.54 0 0 1 .71-1.94 2.43 2.43 0 0 0 -.23-2.51 12.73 12.73 0 0 1 -1.02-1.36z"
          fill="#fff" fill-rule="evenodd" transform="translate(-.17 -.41)"/>
    <path d="m121.45 18.25h20.17v12.36h-20.17z" fill="#16619d"/>
    <path d="m131.7 19.3a13.79 13.79 0 0 1 -1 1.36 2.42 2.42 0 0 0 -.23 2.5 10.93 10.93 0 0 1 .71 1.91 6.13 6.13 0 0 1 .09 1.85h-.56a3.51 3.51 0 0 0 -1.46-3.22 1.7 1.7 0 0 0 -2.45 2.05 1.37 1.37 0 0 0 .79 1 1.29 1.29 0 0 1 .41-1.28 1.16 1.16 0 0 1 1.61.32 2.64 2.64 0 0 1 .36 1.09h-1.05v.82h2.08a1 1 0 0 1 -1.21 1s.14.86 1.21.41a1.58 1.58 0 0 0 .68 1.36 1.59 1.59 0 0 0 .68-1.36c1.07.45 1.21-.41 1.21-.41a1 1 0 0 1 -1.21-1h2.11v-.77h-1.05a2.61 2.61 0 0 1 .36-1.09 1.15 1.15 0 0 1 1.61-.32 1.3 1.3 0 0 1 .41 1.28 1.36 1.36 0 0 0 .79-1 1.7 1.7 0 0 0 -2.45-2.05 3.51 3.51 0 0 0 -1.45 3.22h-.56a6.06 6.06 0 0 1 .09-1.85 10.64 10.64 0 0 1 .71-1.91 2.43 2.43 0 0 0 -.23-2.5 14.93 14.93 0 0 1 -1-1.41z"
          fill="#fff" fill-rule="evenodd" transform="translate(-.17 -.41)"/>
    <path d="m147.49 18.25h20.17v12.36h-20.17z" fill="#16619d"/>
    <path d="m157.75 19.3a14.46 14.46 0 0 1 -1 1.36 2.42 2.42 0 0 0 -.22 2.5 11 11 0 0 1 .71 1.91 6.37 6.37 0 0 1 .09 1.85h-.56a3.5 3.5 0 0 0 -1.46-3.22 1.7 1.7 0 0 0 -2.44 2.05 1.36 1.36 0 0 0 .79 1 1.29 1.29 0 0 1 .41-1.28 1.15 1.15 0 0 1 1.61.32 2.58 2.58 0 0 1 .36 1.09h-1.04v.82h2.11a1 1 0 0 1 -1.21 1s.14.86 1.21.41a1.58 1.58 0 0 0 .69 1.36 1.59 1.59 0 0 0 .67-1.36c1.07.45 1.22-.41 1.22-.41a1 1 0 0 1 -1.22-1h2.12v-.77h-1.06a2.7 2.7 0 0 1 .36-1.09 1.16 1.16 0 0 1 1.62-.32 1.31 1.31 0 0 1 .41 1.28 1.36 1.36 0 0 0 .78-1 1.7 1.7 0 0 0 -2.44-2.05 3.52 3.52 0 0 0 -1.45 3.22h-.61a5.89 5.89 0 0 1 .09-1.85 10.45 10.45 0 0 1 .71-1.91 2.43 2.43 0 0 0 -.23-2.5 12.78 12.78 0 0 1 -1.02-1.41z"
          fill="#fff" fill-rule="evenodd" transform="translate(-.17 -.41)"/>
</svg>