<svg height="181.33" viewBox="0 0 332 181.33333" width="332" xmlns="http://www.w3.org/2000/svg"
     xmlns:xlink="http://www.w3.org/1999/xlink">
    <clipPath id="a">
        <path d="m0 136h249v-136h-249z"/>
    </clipPath>
    <g clip-path="url(#a)" transform="matrix(1.3333 0 0 -1.3333 0 181.33)">
        <g fill="#231f20">
            <path d="m0 0-.002 13.113h-.1c-.466-.429-2.189-.463-2.919-.463h-1.266v-.107c1.464-.898 1.264-2.225 1.264-3.879l.002-5.549c0-2.773-2.725-4.719-4.922-4.719-2.894 0-4.094 2.055-4.094 5.37v9.347h-.101c-.465-.429-2.2-.463-2.93-.463h-1.256v-.107c1.463-.898 1.263-2.225 1.263-3.879v-5.529c0-5.061 2.198-7.467 6.12-7.467 2.329 0 4.72.826 5.92 2.801v-2.391h4.283v.106c-1.463.828-1.262 2.164-1.262 3.816"
                  transform="translate(103.64 67.537)"/>
            <path d="m0 0c.131 4.629-2.965 8.119-7.49 8.119-4.959 0-8.317-3.599-8.317-8.588 0-5.029 3.89-8.859 9.549-8.859 1.565 0 3.16.25 4.591.889l1.667 3.375h-.103c-1.531-1.301-3.46-1.916-5.458-1.916-3.759 0-6.587 2.566-6.655 6.98zm-12.082 2.09c.4 2.25 2.062 3.681 4.293 3.681 2.396 0 3.926-1.179 4.292-3.681z"
                  transform="translate(122.37 72.461)"/>
            <path d="m0 0c.796 0 2.424.051 2.916.535h.098v-22.705c.892-.252 1.82-.43 2.744-.43 3.637 0 5.72 2.543 5.72 6.088 0 3.475-1.621 6.16-4.958 6.16-1.059 0-1.885-.285-2.78-.787l1.788 3.057c.759.287 1.552.396 2.345.396 3.773 0 6.977-3.273 6.977-8.183 0-5.619-3.802-9.258-9.819-9.258-2.248 0-4.407.397-6.034.65v.11c1.096.504.996 1.693.996 2.879v16.504c0 1.658.199 3.978-1.23 4.879v.105z"
                  transform="translate(125 88.266)"/>
            <path d="m0 0c.135 4.629-2.961 8.119-7.487 8.119-4.957 0-8.318-3.599-8.318-8.588 0-5.029 3.893-8.859 9.551-8.859 1.563 0 3.162.25 4.591.889l1.663 3.375h-.099c-1.53-1.301-3.461-1.916-5.459-1.916-3.76 0-6.587 2.566-6.655 6.98zm-12.08 2.09c.4 2.25 2.064 3.681 4.294 3.681 2.396 0 3.926-1.179 4.295-3.681z"
                  transform="translate(157.84 72.461)"/>
            <path d="m0 0h-.1c-.966 1.189-2.564 1.766-4.061 1.766-3.229 0-5.554-2.452-5.554-5.873 0-4.139 3.225-6.879 6.918-6.879 1.699 0 3.563.72 4.861 1.765h.098l-1.73-3.4c-1.399-.568-2.928-.713-4.395-.713-5.122 0-9.127 3.607-9.127 8.291 0 6.195 4.47 9.156 9.494 9.156 1.2 0 2.431-.14 3.596-.425z"
                  transform="translate(172.73 76.467)"/>
            <path d="m0 0v3.604c-2.18-.979-4.204-2.805-5.558-4.584v-1.405c3.239 2.182 5.558 2.283 5.558 2.385"
                  fill-rule="evenodd" transform="translate(118.21 83.551)"/>
            <path d="m0 0c-3.709-.607-7.275.561-11.066 4.898 3.66 1.836 5.923 6.413 5.923 10.665v.531c-.065 7.275-5.531 12.08-12.046 12.08-6.532 0-12.3-5.002-12.348-12.336 0-.035-.002-.459-.002-.49 0-7.137 5.293-12.43 11.782-12.43.933 0 1.831.143 2.73.359 4.252-3.982 8.039-5.677 11.312-5.283 1.555.186 3.194.805 4.179 2.082zm-17.223 5.51c-5.026 0-8.521 5.67-8.521 10.484v.543c.062 4.666 3.083 9.041 8.353 9.041 5.547 0 8.409-5.246 8.453-10.217v-.517c0-5.299-3.292-9.334-8.285-9.334"
                  transform="translate(90.844 60.102)"/>
            <path d="m0 0c-.718.323-1.45.479-2.211.479-1.196 0-1.802-.367-1.802-1 0-.69.676-.76 1.703-1.253 1.422-.691 2.098-1.282 2.098-2.591 0-2.056-1.646-3.506-4.547-3.506-1.155 0-2.239.169-3.267.535l.563 2.014c.789-.395 1.549-.606 2.31-.606 1.38 0 2.154.492 2.154 1.225 0 .845-.789 1-2.126 1.562-1.099.465-1.647 1.211-1.647 2.295 0 1.83 1.59 3.183 4.111 3.183 1.393 0 2.506-.155 3.266-.437z"
                  transform="translate(27.898 116.16)"/>
            <path d="m0 0c-1.014 0-1.942-1.098-1.942-2.646 0-.958.577-1.634 1.393-1.634 1.014 0 1.901 1.098 1.901 2.647 0 1.014-.549 1.633-1.352 1.633m3.9-1.746c0-2.479-1.801-4.238-4.688-4.238-2.323 0-3.717 1.281-3.717 3.308 0 2.592 1.745 4.337 4.647 4.337 2.35 0 3.758-1.296 3.758-3.407"
                  transform="translate(33.008 114.29)"/>
            <path d="m0 0c-.535.253-1.057.38-1.549.38-1.352 0-2.239-.845-2.239-2.084 0-1.084.718-1.775 1.872-1.775.465 0 .93.114 1.437.338l-.296-1.914c-.76-.197-1.436-.297-2.07-.297-2.224 0-3.591 1.368-3.591 3.366 0 2.451 1.76 4.211 4.59 4.211.818 0 1.62-.156 2.422-.479z"
                  transform="translate(43.822 113.74)"/>
            <path d="m0 0-.253-1.295h-2.465l.24 1.295zm-.521-2.52-1.577-7.251h-2.464l1.577 7.251z"
                  transform="translate(48.806 118.29)"/>
            <path d="m0 0h2.634v-.31l-2.323-1.717h-1.663v.169zm1.085-5.562c0 .803-.493 1.31-1.268 1.31-.774 0-1.421-.605-1.704-1.647h2.944c.013.113.028.225.028.337m-3.295-1.732c.099-1.069.69-1.562 1.858-1.562.775 0 1.633.183 2.464.548l-.281-1.787c-.858-.267-1.76-.408-2.675-.408-2.281 0-3.633 1.337-3.633 3.393 0 1.182.507 2.408 1.295 3.181.761.746 1.859 1.141 3.225 1.141 2.014 0 3.111-1.141 3.111-3.125 0-.408-.056-.873-.169-1.381z"
                  transform="translate(53.1 118.78)"/>
            <path d="m0 0h1.787l-.365-1.732h-1.789l-.534-2.521c-.071-.309-.099-.52-.099-.634 0-.52.225-.746.788-.746.197 0 .48.043.831.141l-.366-1.732c-.577-.098-1.042-.155-1.394-.155-1.506 0-2.365.803-2.365 2.197 0 .253.027.493.07.718l.578 2.732h-1.479l.366 1.732h1.479l.365 1.717 2.648.704z"
                  transform="translate(61.084 115.76)"/>
            <path d="m0 0h2.633v-.31l-2.322-1.717h-1.663v.169zm1.084-5.562c0 .803-.492 1.31-1.267 1.31-.774 0-1.422-.605-1.704-1.647h2.944c.013.113.027.225.027.337m-3.295-1.732c.1-1.069.69-1.562 1.859-1.562.774 0 1.633.183 2.464.548l-.282-1.787c-.858-.267-1.76-.408-2.675-.408-2.28 0-3.633 1.337-3.633 3.393 0 1.182.507 2.408 1.296 3.181.76.746 1.859 1.141 3.225 1.141 2.013 0 3.111-1.141 3.111-3.125 0-.408-.056-.873-.169-1.381z"
                  transform="translate(67.109 118.78)"/>
            <path d="m0 0c-.971 0-1.816-1.043-1.816-2.492 0-.846.507-1.408 1.254-1.408 1.013 0 1.914 1.041 1.914 2.421 0 .887-.563 1.479-1.352 1.479m5.111 4.209-2.055-9.771h-2.253l.267 1.21c-.704-.943-1.605-1.421-2.646-1.421-1.719 0-2.83 1.224-2.83 3.224 0 2.633 1.59 4.421 3.844 4.421 1.055 0 1.886-.493 2.378-1.422l.803 3.759z"
                  transform="translate(79.176 114.08)"/>
            <path d="m0 0c0 .803-.492 1.31-1.268 1.31-.773 0-1.421-.606-1.703-1.648h2.944c.013.113.027.226.027.338m-3.295-1.732c.1-1.07.691-1.563 1.859-1.563.774 0 1.633.184 2.464.549l-.282-1.787c-.858-.268-1.76-.408-2.675-.408-2.28 0-3.632 1.337-3.632 3.392 0 1.183.506 2.408 1.295 3.182.76.746 1.859 1.14 3.225 1.14 2.013 0 3.111-1.14 3.111-3.125 0-.408-.056-.873-.169-1.38z"
                  transform="translate(89.553 113.22)"/>
            <path d="m0 0-2.112-9.758h-2.506l2.111 9.758z" transform="translate(100.49 118.28)"/>
            <path d="m0 0-2.084-3.83h-1.942l1.548 3.83z" transform="translate(105.2 118.28)"/>
            <path d="m0 0c-1.353 0-2.056-.395-2.056-1.127 0-.478.366-.816.93-.816.872 0 1.66.704 1.844 1.914-.254.029-.492.029-.718.029m2.759-1.507c-.112-.52-.238-1.126-.295-1.831h-2.098l.141 1.099c-.564-.831-1.422-1.253-2.506-1.253-1.493 0-2.422.873-2.422 2.154 0 1.619 1.492 2.633 4.266 2.633.366 0 .76-.028 1.169-.07.014.084.014.169.014.239 0 .732-.479 1.126-1.394 1.126-.845 0-1.633-.183-2.365-.549l.294 1.689c.79.282 1.579.423 2.409.423 2.181 0 3.365-.915 3.365-2.309 0-.338-.057-.788-.155-1.295z"
                  transform="translate(108.5 111.86)"/>
            <path d="m0 0c-.718.238-1.323.408-1.914.408-.732 0-1.127-.267-1.127-.662 0-.507.577-.563 1.492-.943 1.014-.422 1.479-.957 1.479-1.788 0-1.535-1.268-2.634-3.422-2.634-.985 0-1.943.141-2.886.465l.521 1.746c.69-.338 1.351-.492 2.027-.492.831 0 1.267.238 1.267.647 0 .507-.421.606-1.055.858-1.183.479-1.817.93-1.817 2.042 0 1.31 1.253 2.38 3.436 2.38.802 0 1.647-.155 2.548-.437z"
                  transform="translate(118.46 113.94)"/>
            <path d="m0 0c-.718.238-1.323.408-1.915.408-.732 0-1.126-.267-1.126-.662 0-.507.577-.563 1.492-.943 1.015-.422 1.479-.957 1.479-1.788 0-1.535-1.267-2.634-3.421-2.634-.987 0-1.944.141-2.887.465l.522 1.746c.689-.338 1.351-.492 2.027-.492.83 0 1.266.238 1.266.647 0 .507-.422.606-1.055.858-1.184.479-1.817.93-1.817 2.042 0 1.31 1.253 2.38 3.436 2.38.803 0 1.646-.155 2.549-.437z"
                  transform="translate(125.16 113.94)"/>
            <path d="m0 0-.761-3.633c-.056-.254-.084-.493-.084-.719 0-.703.338-1.084.957-1.084.916 0 1.619.803 1.957 2.379l.649 3.057h2.533l-1.549-7.238h-2.265l.281 1.225c-.817-.928-1.746-1.408-2.76-1.408-1.492 0-2.365.901-2.365 2.521 0 .478.084 1.154.267 2.013l.606 2.887z"
                  transform="translate(129.53 115.76)"/>
            <path d="m0 0c-.451.127-.817.197-1.1.197-1.154 0-1.66-.718-1.984-2.238l-.676-3.127h-2.535l1.479 7.266h2.295l-.268-1.324c.705 1.014 1.408 1.493 2.394 1.493.31 0 .62-.056.957-.156z"
                  transform="translate(141 113.69)"/>
            <path d="m0 0c-1.352 0-2.056-.395-2.056-1.127 0-.478.367-.816.93-.816.872 0 1.661.704 1.845 1.914-.254.029-.493.029-.719.029m2.76-1.507c-.113-.52-.239-1.126-.295-1.831h-2.099l.142 1.099c-.565-.831-1.423-1.253-2.507-1.253-1.493 0-2.422.873-2.422 2.154 0 1.619 1.493 2.633 4.267 2.633.365 0 .759-.028 1.168-.07.013.084.013.169.013.239 0 .732-.478 1.126-1.392 1.126-.846 0-1.634-.183-2.366-.549l.295 1.689c.79.282 1.577.423 2.409.423 2.181 0 3.365-.915 3.365-2.309 0-.338-.057-.788-.156-1.295z"
                  transform="translate(145.21 111.86)"/>
            <path d="m0 0h-2.521l.76 3.633c.057.267.085.508.085.719 0 .689-.351 1.07-.916 1.07-.999 0-1.661-.789-1.999-2.366l-.647-3.056h-2.535l1.548 7.309h2.268l-.281-1.296c.816.928 1.746 1.408 2.759 1.408 1.493 0 2.366-.915 2.366-2.534 0-.465-.084-1.127-.268-2z"
                  transform="translate(156.57 108.52)"/>
            <path d="m0 0c-.534.253-1.055.38-1.548.38-1.352 0-2.239-.845-2.239-2.084 0-1.084.719-1.775 1.873-1.775.465 0 .93.114 1.435.338l-.294-1.914c-.761-.197-1.437-.297-2.071-.297-2.224 0-3.59 1.368-3.59 3.366 0 2.451 1.76 4.211 4.59 4.211.817 0 1.619-.156 2.422-.479z"
                  transform="translate(164.57 113.74)"/>
            <path d="m0 0c0 .803-.492 1.31-1.268 1.31-.773 0-1.421-.606-1.703-1.648h2.943c.014.113.028.226.028.338m-3.295-1.732c.099-1.07.69-1.563 1.859-1.563.774 0 1.633.184 2.463.549l-.281-1.787c-.859-.268-1.76-.408-2.675-.408-2.281 0-3.633 1.337-3.633 3.392 0 1.183.507 2.408 1.296 3.182.76.746 1.858 1.14 3.224 1.14 2.014 0 3.112-1.14 3.112-3.125 0-.408-.056-.873-.17-1.38z"
                  transform="translate(170.75 113.22)"/>
            <path d="m0 0c-1.352 0-2.056-.395-2.056-1.127 0-.478.367-.816.93-.816.873 0 1.661.704 1.845 1.914-.254.029-.493.029-.719.029m2.76-1.507c-.113-.52-.239-1.126-.296-1.831h-2.098l.141 1.099c-.563-.831-1.422-1.253-2.506-1.253-1.492 0-2.422.873-2.422 2.154 0 1.619 1.492 2.633 4.267 2.633.366 0 .759-.028 1.169-.07.013.084.013.169.013.239 0 .731-.478 1.126-1.394 1.126-.844 0-1.633-.183-2.365-.549l.295 1.689c.789.282 1.578.423 2.408.423 2.182 0 3.365-.915 3.365-2.309 0-.338-.056-.788-.154-1.295z"
                  transform="translate(24.546 97.775)"/>
            <path d="m0 0-.761-3.633c-.055-.254-.084-.493-.084-.719 0-.703.338-1.084.957-1.084.916 0 1.619.803 1.957 2.379l.649 3.057h2.534l-1.549-7.238h-2.266l.281 1.225c-.817-.928-1.746-1.408-2.76-1.408-1.492 0-2.365.901-2.365 2.521 0 .478.084 1.154.267 2.013l.606 2.887z"
                  transform="translate(32.487 101.68)"/>
            <path d="m0 0h1.788l-.366-1.732h-1.788l-.535-2.521c-.071-.309-.099-.52-.099-.634 0-.52.226-.746.788-.746.197 0 .479.043.831.141l-.366-1.732c-.577-.098-1.042-.155-1.394-.155-1.506 0-2.366.803-2.366 2.197 0 .253.029.493.071.718l.578 2.732h-1.479l.366 1.732h1.479l.366 1.717 2.647.704z"
                  transform="translate(42.653 101.68)"/>
            <path d="m0 0c-1.014 0-1.942-1.098-1.942-2.646 0-.958.577-1.634 1.393-1.634 1.014 0 1.901 1.098 1.901 2.647 0 1.014-.549 1.633-1.352 1.633m3.9-1.746c0-2.479-1.802-4.238-4.688-4.238-2.323 0-3.718 1.281-3.718 3.308 0 2.592 1.746 4.337 4.647 4.337 2.351 0 3.759-1.296 3.759-3.407"
                  transform="translate(49.115 100.21)"/>
            <path d="m0 0h-2.407l.76 3.633c.084.381.126.676.126.901 0 .535-.295.859-.76.859-.38 0-.718-.168-.972-.493-.422-.535-.478-1.168-.619-1.844l-.648-3.056h-2.562l.774 3.633c.084.381.113.704.113.986 0 .492-.268.774-.761.774-.773 0-1.211-.591-1.464-1.788l-.774-3.605h-2.563l1.549 7.309h2.168l-.281-1.325c.802.957 1.577 1.437 2.534 1.437 1.042 0 1.689-.48 1.985-1.423.789.973 1.535 1.423 2.591 1.423 1.352 0 2.21-.859 2.21-2.281 0-.437-.056-.775-.098-.986z"
                  transform="translate(65.308 94.438)"/>
            <path d="m0 0c-1.014 0-1.943-1.098-1.943-2.646 0-.958.578-1.634 1.394-1.634 1.014 0 1.901 1.098 1.901 2.647 0 1.014-.549 1.633-1.352 1.633m3.9-1.746c0-2.479-1.802-4.238-4.688-4.238-2.323 0-3.718 1.281-3.718 3.308 0 2.592 1.746 4.337 4.647 4.337 2.351 0 3.759-1.296 3.759-3.407"
                  transform="translate(71.826 100.21)"/>
            <path d="m0 0c-1 0-1.901-1.057-1.901-2.365 0-.944.535-1.535 1.337-1.535.972 0 1.816 1.055 1.816 2.449 0 .902-.492 1.451-1.252 1.451m-.62 4.209-.761-3.449c.676.746 1.465 1.127 2.408 1.127 1.703 0 2.817-1.24 2.817-3.239 0-2.619-1.578-4.408-3.83-4.408-1.141 0-1.986.55-2.549 1.662l-.352-1.464h-2.281l2.041 9.771z"
                  transform="translate(81.5 100)"/>
            <path d="m0 0-.254-1.295h-2.464l.239 1.295zm-.521-2.52-1.577-7.251h-2.464l1.577 7.251z"
                  transform="translate(90.666 104.21)"/>
            <path d="m0 0-2.111-9.758h-2.507l2.112 9.758z" transform="translate(95.27 104.2)"/>
            <path d="m0 0c0 .803-.493 1.31-1.268 1.31-.774 0-1.421-.606-1.703-1.648h2.942c.014.113.029.225.029.338m-3.295-1.732c.098-1.07.69-1.563 1.858-1.563.775 0 1.634.184 2.464.549l-.281-1.787c-.859-.268-1.76-.408-2.676-.408-2.281 0-3.632 1.337-3.632 3.392 0 1.183.507 2.408 1.295 3.182.761.746 1.859 1.14 3.224 1.14 2.014 0 3.112-1.14 3.112-3.125 0-.408-.055-.873-.169-1.38z"
                  transform="translate(101.11 99.141)"/>
        </g>
        <path d="m202.92 94.225h-20.165v-12.361h20.165z" fill="#16619d" fill-rule="evenodd"/>
        <path d="m0 0c-.146-.271-.477-.66-1.028-1.359-.646-.801-.533-1.871-.227-2.506.35-.731.551-1.338.71-1.912.222-.838.076-1.953.091-1.852h-.558c0 1.363-.426 2.647-1.455 3.217-1.462.808-2.904-.596-2.447-2.055.244-.765.674-1.023.795-1.023 0 0-.201.844.408 1.273.575.406 1.283.162 1.612-.322.31-.461.36-1.09.36-1.09h-1.05v-.779l2.112.002s-.057-1.096-1.214-.99c0 0 .144-.864 1.214-.413 0 0-.057-.904.677-1.361.734.457.68 1.361.68 1.361 1.072-.451 1.213.413 1.213.413-1.159-.106-1.213.99-1.213.99l2.113-.002v.779h-1.053s.051.629.363 1.09c.327.484 1.037.728 1.609.322.608-.429.41-1.273.41-1.273.123 0 .55.258.794 1.023.459 1.459-.985 2.863-2.445 2.055-1.032-.57-1.453-1.854-1.453-3.217h-.561c.014-.101-.132 1.014.092 1.852.156.574.359 1.181.71 1.912.305.635.419 1.705-.226 2.506-.551.699-.884 1.088-1.033 1.359"
              fill="#fff" fill-rule="evenodd" transform="translate(192.84 93.578)"/>
        <path d="m228.97 94.225h-20.172v-12.361h20.172z" fill="#16619d" fill-rule="evenodd"/>
        <path d="m0 0c-.151-.271-.479-.66-1.037-1.359-.646-.801-.529-1.871-.224-2.506.352-.731.553-1.338.713-1.912.219-.838.074-1.953.091-1.852h-.562c0 1.363-.422 2.647-1.455 3.217-1.461.808-2.902-.596-2.443-2.055.241-.765.67-1.023.793-1.023 0 0-.199.844.412 1.273.568.406 1.279.162 1.606-.322.313-.461.363-1.09.363-1.09h-1.051v-.779l2.109.002s-.055-1.096-1.209-.99c0 0 .139-.864 1.209-.413 0 0-.055-.904.685-1.361.729.457.673 1.361.673 1.361 1.072-.451 1.217.413 1.217.413-1.161-.106-1.217.99-1.217.99l2.117-.002v.779h-1.057s.055.629.362 1.09c.331.484 1.039.728 1.614.322.604-.429.413-1.273.413-1.273.117 0 .547.258.783 1.023.459 1.459-.984 2.863-2.443 2.055-1.025-.57-1.451-1.854-1.451-3.217h-.556c.015-.101-.136 1.014.09 1.852.153.574.358 1.181.708 1.912.305.635.418 1.705-.227 2.506-.55.699-.885 1.088-1.026 1.359"
              fill="#fff" fill-rule="evenodd" transform="translate(218.88 93.578)"/>
        <path d="m202.92 75.977h-20.165v-12.355h20.165z" fill="#16619d" fill-rule="evenodd"/>
        <path d="m0 0c-.146-.271-.477-.66-1.028-1.357-.646-.801-.533-1.872-.227-2.504.35-.731.551-1.336.71-1.914.222-.834.076-1.954.091-1.852h-.558c0 1.361-.426 2.648-1.455 3.217-1.462.812-2.904-.596-2.447-2.055.244-.764.674-1.023.795-1.023 0 0-.201.842.408 1.275.575.402 1.283.158 1.612-.32.31-.463.36-1.094.36-1.094h-1.05v-.777l2.112.002s-.057-1.098-1.214-.993c0 0 .144-.863 1.214-.408 0 0-.057-.91.677-1.363.734.453.68 1.363.68 1.363 1.072-.455 1.213.408 1.213.408-1.159-.105-1.213.993-1.213.993l2.113-.002v.777h-1.053s.051.631.363 1.094c.327.478 1.037.722 1.609.32.608-.433.41-1.275.41-1.275.123 0 .55.259.794 1.023.459 1.459-.985 2.867-2.445 2.055-1.032-.569-1.453-1.856-1.453-3.217h-.561c.014-.102-.132 1.018.092 1.852.156.578.359 1.183.71 1.914.305.632.419 1.703-.226 2.504-.551.697-.884 1.086-1.033 1.357"
              fill="#fff" fill-rule="evenodd" transform="translate(192.84 75.332)"/>
        <path d="m228.97 75.977h-20.172v-12.355h20.172z" fill="#16619d" fill-rule="evenodd"/>
        <path d="m0 0c-.151-.271-.479-.66-1.037-1.357-.646-.801-.529-1.872-.224-2.504.352-.731.553-1.336.713-1.914.219-.834.074-1.954.091-1.852h-.562c0 1.361-.422 2.648-1.455 3.217-1.461.812-2.902-.596-2.443-2.055.241-.764.67-1.023.793-1.023 0 0-.199.842.412 1.275.568.402 1.279.158 1.606-.32.313-.463.363-1.094.363-1.094h-1.051v-.777l2.109.002s-.055-1.098-1.209-.993c0 0 .139-.863 1.209-.408 0 0-.055-.91.685-1.363.729.453.673 1.363.673 1.363 1.072-.455 1.217.408 1.217.408-1.161-.105-1.217.993-1.217.993l2.117-.002v.777h-1.057s.055.631.362 1.094c.331.478 1.039.722 1.614.32.604-.433.413-1.275.413-1.275.117 0 .547.259.783 1.023.459 1.459-.984 2.867-2.443 2.055-1.025-.569-1.451-1.856-1.451-3.217h-.556c.015-.102-.136 1.018.09 1.852.153.578.358 1.183.708 1.914.305.632.418 1.703-.227 2.504-.55.697-.885 1.086-1.026 1.357"
              fill="#fff" fill-rule="evenodd" transform="translate(218.88 75.332)"/>
        <path d="m0 0c-.145.335-.304.813-.432 1.244h-.031c-.112-.431-.287-.909-.432-1.244l-1.005-2.49h2.905zm2.633-6.353-1.102 2.633h-3.957l-1.101-2.633h-1.517l4.341 10.326h.558l4.342-10.326z"
              fill="#231f20" transform="translate(25.927 39.352)"/>
        <path d="m0 0h-.591l-3.016 7.358h1.468l1.309-3.192c.191-.463.415-1.036.59-1.579h.033c.175.543.398 1.116.59 1.579l1.293 3.192h1.356z"
              fill="#231f20" transform="translate(33.517 32.871)"/>
        <path d="m0 0c-.909 0-1.884-.72-2.075-1.724h3.639c.016.064.016.126.016.192 0 .717-.622 1.532-1.58 1.532m3.001-2.091-.814-.815h-4.358c.049-.893.879-2.155 2.57-2.155.926 0 1.644.256 2.315.736l-.367-1.549c-.512-.272-1.166-.463-2.139-.463-2.06 0-3.879 1.532-3.879 3.783 0 2.458 1.916 3.798 3.592 3.798 1.994 0 3.127-1.404 3.127-2.746 0-.222-.016-.431-.047-.589"
              fill="#231f20" transform="translate(40.857 39.161)"/>
        <path d="m0 0c-.654.415-1.245.543-1.947.543-1.325 0-2.554-.959-2.554-2.522 0-1.549 1.262-2.506 2.586-2.506.67 0 1.261.128 2.075.511l-.304-1.421c-.527-.239-1.181-.367-1.899-.367-1.979 0-3.927 1.421-3.927 3.783 0 2.378 1.948 3.798 3.927 3.798.958 0 1.708-.207 2.314-.543z"
              fill="#231f20" transform="translate(50.992 38.586)"/>
        <path d="m0 0h-.591l-3.016 7.358h1.468l1.309-3.192c.191-.463.415-1.036.59-1.579h.033c.175.543.398 1.116.59 1.579l1.293 3.192h1.356z"
              fill="#231f20" transform="translate(59.451 32.871)"/>
        <path d="m0 0c-1.276 0-2.378-1.007-2.378-2.521 0-1.501 1.102-2.507 2.378-2.507 1.262 0 2.363 1.006 2.363 2.507 0 1.514-1.101 2.521-2.363 2.521m0-6.305c-2.154 0-3.846 1.548-3.846 3.784 0 2.25 1.692 3.797 3.846 3.797 2.155 0 3.831-1.547 3.831-3.797 0-2.236-1.676-3.784-3.831-3.784"
              fill="#231f20" transform="translate(66.967 39.129)"/>
        <path d="m0 0-.064.717c-.559-.607-1.101-.893-2.235-.893-1.58 0-2.744 1.005-2.744 2.617v4.788h1.451v-4.643c0-.75.463-1.517 1.677-1.517 1.165 0 1.739.767 1.739 1.517v4.643h1.453v-7.229z"
              fill="#231f20" transform="translate(77.277 33)"/>
        <path d="m0 0c-.846 0-1.596.238-2.027.526l-.334 1.596c.59-.51 1.515-.893 2.393-.893.687 0 1.15.367 1.15.862 0 .51-.368.813-1.037 1.053-1.438.527-2.236 1.198-2.236 2.363 0 1.213.989 2.074 2.427 2.074.83 0 1.611-.288 1.883-.463l-.272-1.214c-.319.225-.845.463-1.628.463-.606 0-1.005-.334-1.005-.812 0-.463.334-.703 1.053-.959 1.453-.527 2.266-1.181 2.266-2.442 0-1.165-.877-2.154-2.633-2.154"
              fill="#231f20" transform="translate(82.225 32.824)"/>
        <path d="m0 0-.559.096c.575.734.957 1.533 1.038 2.028-.288.047-.782.51-.782.766 0 .351.67.957.973.957.271 0 .975-.59.975-.957 0-.655-.895-2.188-1.645-2.89"
              fill="#231f20" transform="translate(86.31 30.908)"/>
        <path d="m0 0-1.437-.127c-.862-.08-1.245-.639-1.245-1.166 0-.51.431-.973 1.006-.973.766 0 1.676.717 1.676 1.627zm1.34-3.496c-.494.113-.893.48-1.053.926-.511-.67-1.245-.926-2.027-.926-1.436 0-2.33 1.055-2.33 2.219 0 1.404 1.149 2.203 2.379 2.314l1.691.16v.463c0 .653-.383 1.182-1.404 1.182-.719 0-1.469-.224-1.996-.575l-.288 1.197c.655.43 1.485.622 2.363.622 1.612 0 2.777-.91 2.777-2.617v-2.922c0-.654.351-1.037.814-1.117z"
              fill="#231f20" transform="translate(65.57 23.672)"/>
        <path d="m0 0-.064.719c-.559-.608-1.101-.895-2.235-.895-1.58 0-2.744 1.006-2.744 2.619v4.787h1.451v-4.644c0-.75.463-1.516 1.677-1.516 1.165 0 1.739.766 1.739 1.516v4.644h1.453v-7.23z"
              fill="#231f20" transform="translate(74.141 20.352)"/>
        <path d="m0 0c-.654.415-1.246.543-1.947.543-1.325 0-2.555-.959-2.555-2.522 0-1.549 1.262-2.506 2.586-2.506.67 0 1.262.127 2.076.511l-.305-1.422c-.525-.238-1.179-.367-1.898-.367-1.979 0-3.927 1.422-3.927 3.784 0 2.378 1.948 3.798 3.927 3.798.957 0 1.707-.207 2.314-.543z"
              fill="#231f20" transform="translate(86.494 25.938)"/>
        <path d="m0 0c-1.277 0-2.379-1.007-2.379-2.522 0-1.5 1.102-2.506 2.379-2.506 1.26 0 2.361 1.006 2.361 2.506 0 1.515-1.101 2.522-2.361 2.522m0-6.306c-2.156 0-3.848 1.549-3.848 3.784 0 2.251 1.692 3.798 3.848 3.798 2.154 0 3.83-1.547 3.83-3.798 0-2.235-1.676-3.784-3.83-3.784"
              fill="#231f20" transform="translate(91.443 26.481)"/>
        <path d="m0 0c-.91 0-1.883-.72-2.076-1.725h3.64c.016.065.016.127.016.192 0 .718-.623 1.533-1.58 1.533m3-2.092-.814-.814h-4.358c.049-.893.879-2.155 2.57-2.155.926 0 1.645.256 2.315.735l-.367-1.549c-.51-.271-1.164-.463-2.139-.463-2.059 0-3.879 1.533-3.879 3.783 0 2.459 1.916 3.799 3.592 3.799 1.994 0 3.129-1.404 3.129-2.746 0-.223-.018-.43-.049-.59"
              fill="#231f20" transform="translate(98.465 26.514)"/>
        <path d="m0 0-.064.719c-.559-.608-1.102-.895-2.235-.895-1.58 0-2.746 1.006-2.746 2.619v4.787h1.453v-4.644c0-.75.463-1.516 1.676-1.516 1.164 0 1.74.766 1.74 1.516v4.644h1.451v-7.23z"
              fill="#231f20" transform="translate(107.99 20.352)"/>
        <path d="m0 0c-1.166 0-2.57-.621-2.57-2.681v-3.416h-1.453v7.231h1.373l.064-1.134c.383.896 1.373 1.229 2.457 1.229l.272-1.229z"
              fill="#231f20" transform="translate(115.21 26.448)"/>
        <path d="m0 0c-.383.366-1.037.671-1.805.671-1.293 0-2.345-1.007-2.345-2.523 0-1.5 1.052-2.505 2.345-2.505.784 0 1.422.302 1.805.734zm.207-5.459-.049.574c-.445-.478-1.244-.75-2.234-.75-1.547 0-3.543 1.278-3.543 3.783 0 2.235 1.66 3.799 3.814 3.799.784 0 1.438-.239 1.805-.479v4.437h1.452v-11.364z"
              fill="#231f20" transform="translate(125.44 25.81)"/>
        <path d="m0 0c-.91 0-1.883-.72-2.076-1.725h3.639c.017.065.017.127.017.192 0 .718-.623 1.533-1.58 1.533m3.001-2.092-.815-.814h-4.358c.048-.893.878-2.155 2.57-2.155.926 0 1.645.256 2.316.735l-.367-1.549c-.512-.271-1.166-.463-2.14-.463-2.06 0-3.879 1.533-3.879 3.783 0 2.459 1.915 3.799 3.592 3.799 1.994 0 3.128-1.404 3.128-2.746 0-.223-.017-.43-.047-.59"
              fill="#231f20" transform="translate(132.08 26.514)"/>
        <path d="m0 0h-.59l-3.016 7.357h1.467l1.309-3.191c.193-.463.416-1.037.592-1.58h.031c.176.543.398 1.117.592 1.58l1.291 3.191h1.357z"
              fill="#231f20" transform="translate(143.36 20.225)"/>
        <path d="m0 0c-1.277 0-2.379-1.007-2.379-2.522 0-1.5 1.102-2.506 2.379-2.506 1.26 0 2.361 1.006 2.361 2.506 0 1.515-1.101 2.522-2.361 2.522m0-6.306c-2.156 0-3.848 1.549-3.848 3.784 0 2.251 1.692 3.798 3.848 3.798 2.154 0 3.83-1.547 3.83-3.798 0-2.235-1.676-3.784-3.83-3.784"
              fill="#231f20" transform="translate(150.88 26.481)"/>
        <path d="m0 0h-2.299v-4.023c0-.59.479-.911 1.07-.911.303 0 .575.034.797.114l-.287-1.293c-.16-.049-.367-.065-.654-.065-1.309 0-2.361.766-2.361 2.203v3.975h-1.422v1.164h1.422v1.469l1.435.751v-2.22h2.555z"
              fill="#231f20" transform="translate(160.56 26.418)"/>
        <path d="m0 0c-1.166 0-2.57-.621-2.57-2.681v-3.416h-1.453v7.231h1.373l.064-1.134c.383.896 1.373 1.229 2.457 1.229l.272-1.229z"
              fill="#231f20" transform="translate(166.07 26.448)"/>
        <path d="m0 0c-.91 0-1.883-.72-2.076-1.725h3.64c.016.065.016.127.016.192 0 .718-.623 1.533-1.58 1.533m3-2.092-.814-.814h-4.358c.049-.893.879-2.155 2.57-2.155.926 0 1.645.256 2.315.735l-.367-1.549c-.51-.271-1.164-.463-2.139-.463-2.059 0-3.879 1.533-3.879 3.783 0 2.459 1.916 3.799 3.592 3.799 1.994 0 3.129-1.404 3.129-2.746 0-.223-.018-.43-.049-.59"
              fill="#231f20" transform="translate(170.36 26.514)"/>
        <path d="m0 0c-.846 0-1.596.24-2.027.527l-.336 1.596c.592-.51 1.517-.893 2.394-.893.688 0 1.151.368 1.151.862 0 .51-.368.814-1.039 1.053-1.436.527-2.235 1.197-2.235 2.363 0 1.213.99 2.074 2.426 2.074.83 0 1.613-.288 1.885-.463l-.272-1.214c-.32.225-.845.463-1.629.463-.605 0-1.005-.334-1.005-.812 0-.464.335-.702 1.054-.958 1.451-.528 2.266-1.182 2.266-2.442 0-1.166-.877-2.156-2.633-2.156"
              fill="#231f20" transform="translate(180.43 20.176)"/>
        <path d="m0 0-.672.654c.848.256 1.932.735 2.682 1.437l.256-1.117c-.766-.527-1.405-.75-2.266-.974m.479-2.281c-.911 0-1.883-.72-2.077-1.725h3.641c.016.065.016.127.016.192 0 .717-.623 1.533-1.58 1.533m3-2.092-.815-.814h-4.357c.048-.893.879-2.155 2.57-2.155.926 0 1.644.256 2.314.735l-.367-1.549c-.51-.272-1.164-.463-2.138-.463-2.059 0-3.879 1.533-3.879 3.783 0 2.459 1.916 3.799 3.591 3.799 1.995 0 3.129-1.404 3.129-2.746 0-.223-.017-.43-.048-.59"
              fill="#231f20" transform="translate(187.38 28.795)"/>
        <path d="m0 0c-.656.415-1.246.543-1.947.543-1.326 0-2.555-.959-2.555-2.522 0-1.549 1.262-2.506 2.586-2.506.67 0 1.26.127 2.074.511l-.303-1.422c-.527-.238-1.181-.367-1.898-.367-1.98 0-3.928 1.422-3.928 3.784 0 2.378 1.948 3.798 3.928 3.798.957 0 1.707-.207 2.313-.543z"
              fill="#231f20" transform="translate(197.99 25.938)"/>
        <path d="m0 0-.064.719c-.559-.608-1.102-.895-2.235-.895-1.58 0-2.746 1.006-2.746 2.619v4.787h1.453v-4.644c0-.75.463-1.516 1.676-1.516 1.164 0 1.74.766 1.74 1.516v4.644h1.451v-7.23z"
              fill="#231f20" transform="translate(204.69 20.352)"/>
        <path d="m0 0c-1.164 0-2.568-.621-2.568-2.681v-3.416h-1.453v7.231h1.373l.062-1.134c.385.896 1.373 1.229 2.459 1.229l.272-1.229z"
              fill="#231f20" transform="translate(211.91 26.448)"/>
        <path d="m213.49 27.582h1.467v-7.23h-1.467zm.735 1.389c-.289 0-.879.59-.879.878 0 .303.59.894.879.894.302 0 .892-.591.892-.894 0-.288-.59-.878-.892-.878"
              fill="#231f20"/>
        <path d="m0 0h-2.297v-4.023c0-.59.479-.911 1.068-.911.303 0 .575.034.799.114l-.287-1.293c-.16-.049-.367-.065-.654-.065-1.311 0-2.363.766-2.363 2.203v3.975h-1.42v1.164h1.42v1.469l1.437.751v-2.22h2.553z"
              fill="#231f20" transform="translate(221.45 26.418)"/>
        <path d="m0 0-.672.654c.848.256 1.932.735 2.682 1.437l.256-1.117c-.766-.527-1.405-.75-2.266-.974m.479-2.281c-.911 0-1.883-.72-2.077-1.725h3.641c.016.065.016.127.016.192 0 .717-.623 1.533-1.58 1.533m3-2.092-.815-.814h-4.357c.048-.893.879-2.155 2.57-2.155.926 0 1.644.256 2.314.735l-.367-1.549c-.51-.272-1.164-.463-2.138-.463-2.059 0-3.879 1.533-3.879 3.783 0 2.459 1.916 3.799 3.591 3.799 1.995 0 3.129-1.404 3.129-2.746 0-.223-.017-.43-.048-.59"
              fill="#231f20" transform="translate(225.65 28.795)"/>
    </g>
</svg>