<svg fill="none" viewBox="0 0 30 30" xmlns="http://www.w3.org/2000/svg"><rect fill="#055" height="30" rx="5" width="30"/><path clip-rule="evenodd" d="m9.32396 14.94c-.0165 1.5672-1.30035 2.8243-2.86756 2.8078s-2.8243-1.3004-2.8078-2.8676 1.30035-2.8243 2.86756-2.8078c1.5672.0165 2.8243 1.3004 2.8078 2.8676zm17.02344.1797c-.0165 1.5672-1.3004 2.8243-2.8676 2.8078s-2.8243-1.3004-2.8078-2.8676 1.3004-2.8243 2.8676-2.8078 2.8243 1.3004 2.8078 2.8676zm-11.3754 2.7179c1.5672.0165 2.8511-1.2406 2.8676-2.8078s-1.2406-2.851-2.8078-2.8675-2.8511 1.2406-2.8676 2.8078 1.2406 2.851 2.8078 2.8675z" fill="#fff" fill-rule="evenodd"/></svg>